# xmcd CD database file
#
# Track frame offsets:
#	183
#	62840
#	98123
#	129690
#	175175
#	220640
#
# Disc length: 3484 seconds
#
# Revision: 0
# Processed by: cddbd v1.5PL3 Copyright (c) Steve Scherf et al.
# Submitted via: CDex 1.51
#
DISCID=500d9a06
DTITLE=Sacred Consecrations - Sacred Consecrations
DYEAR=1999
DGENRE=New Age
TTITLE0=Mistery of Love
TTITLE1=Jacobs Ladder
TTITLE2=Temple of the Elausinian Mysteries
TTITLE3=Fraternity of Light
TTITLE4=Worship of Osiris
TTITLE5=Brotherhood Of Assisi
EXTD=YEAR: 1999
EXTT0=
EXTT1=
EXTT2=
EXTT3=
EXTT4=
EXTT5=
PLAYORDER=
